<?xml version="1.0" encoding="UTF-8" standalone="no"?>
<!-- Created with Inkscape (http://www.inkscape.org/) -->
<svg
   xmlns:dc="http://purl.org/dc/elements/1.1/"
   xmlns:cc="http://web.resource.org/cc/"
   xmlns:rdf="http://www.w3.org/1999/02/22-rdf-syntax-ns#"
   xmlns:svg="http://www.w3.org/2000/svg"
   xmlns="http://www.w3.org/2000/svg"
   xmlns:xlink="http://www.w3.org/1999/xlink"
   xmlns:sodipodi="http://sodipodi.sourceforge.net/DTD/sodipodi-0.dtd"
   xmlns:inkscape="http://www.inkscape.org/namespaces/inkscape"
   width="194.28572"
   height="257.14285"
   id="svg2"
   sodipodi:version="0.32"
   inkscape:version="0.45.1"
   sodipodi:docbase="/home/marco/mlt-svn/mlt/src/modules/oldfilm"
   sodipodi:docname="dust2.svg"
   inkscape:output_extension="org.inkscape.output.svg.inkscape"
   version="1.0">
  <sodipodi:namedview
     id="base"
     pagecolor="#ff4f64"
     bordercolor="#666666"
     borderopacity="1.0"
     inkscape:pageopacity="0.43137255"
     inkscape:pageshadow="2"
     inkscape:zoom="5.248863"
     inkscape:cx="100.71553"
     inkscape:cy="161.55164"
     inkscape:document-units="px"
     inkscape:current-layer="layer1"
     inkscape:window-width="1043"
     inkscape:window-height="804"
     inkscape:window-x="387"
     inkscape:window-y="16" />
  <defs
     id="defs4">
    <linearGradient
       id="linearGradient3147">
      <stop
         offset="0"
         style="stop-color:#fffdff;stop-opacity:1;"
         id="stop3149" />
      <stop
         offset="1"
         style="stop-color:#ffffff;stop-opacity:0.30222222;"
         id="stop3151" />
    </linearGradient>
    <radialGradient
       r="97.14286"
       id="radialGradient3155"
       fx="274.28571"
       fy="335.21933"
       gradientUnits="userSpaceOnUse"
       inkscape:collect="always"
       cy="335.21933"
       cx="274.28571"
       xlink:href="#linearGradient3147"
       gradientTransform="matrix(1,0,0,1.3235293,0,-108.45329)" />
    <radialGradient
       inkscape:collect="always"
       xlink:href="#linearGradient3147"
       id="radialGradient4250"
       cx="277.85837"
       cy="302.23911"
       fx="277.85837"
       fy="302.23911"
       r="91.162598"
       gradientTransform="matrix(1,0,0,0.4733379,0,159.17788)"
       gradientUnits="userSpaceOnUse"
       spreadMethod="reflect" />
  </defs>
  <metadata
     id="metadata7">
    <rdf:RDF>
      <cc:Work
         rdf:about="">
        <dc:format>image/svg+xml</dc:format>
        <dc:type
           rdf:resource="http://purl.org/dc/dcmitype/StillImage" />
      </cc:Work>
    </rdf:RDF>
  </metadata>
  <g
     transform="translate(-177.14285,-206.6479)"
     inkscape:label="Ebene 1"
     id="layer1"
     inkscape:groupmode="layer">
    <path
       style="opacity:1;stroke-opacity:1;fill-rule:nonzero;fill-opacity:1;stroke:none;stroke-miterlimit:4;stroke-dasharray:none;stroke-width:9.80000019;fill:url(#radialGradient3155)"
       id="path2261"
       d="M-463.907729645 59.4947232865L-465.88997919 53.0618899264L-467.549378959 46.5383133996L-469.743557035 39.9685086158L-468.666248439 33.1262751708L-466.83275019 26.2872473927L-464.142489942 19.7377041588L-464.524207184 12.4160838201L-468.615066603 6.33194857812L-468.910847311 -0.683251608856L-470.528779939 -7.51573387404L-475.092658479 -12.8099924273L-479.739067212 -18.0319697201L-485.73817452 -21.945195162L-491.476673252 -26.2314819186L-495.419964008 -32.6422392782L-494.847794523 -40.1469027611L-492.480636045 -47.3546670613L-491.9760398 -54.9243888592L-487.59770564 -61.5755338577L-480.048594523 -64.1090020642L-480.681659877 -71.3075932316L-483.088938826 -78.121218889L-482.704413791 -85.3251250446L-480.732250787 -92.2644835516L-480.193664405 -99.1533349308L-480.563047873 -106.053328008L-481.025575984 -113.263921496L-485.519721132 -118.921593287L-487.829778625 -125.3369764L-488.982048988 -132.057525418L-490.622429463 -138.759025882L-494.477291489 -144.481000656L-490.017834216 -150.068529921L-486.181732441 -156.10107214L-488.547366928 -163.013327043L-487.825680898 -170.283448339L-483.680993685 -176.261759704L-477.054071133 -179.262182402L-473.931082668 -185.714303117L-473.702723282 -192.878852696L-475.469781914 -199.784629318L-477.829700823 -206.510923223L-477.23499722 -214.07026968L-471.904284019 -219.46293952L-465.900025338 -223.606434671L-462.736688564 -230.180092316L-460.270934889 -237.140901407L-462.186942229 -244.272641747L-466.091911117 -251.164436042L-473.420709869 -254.170150512L-476.639538032 -261.370949763L-474.91411937 -269.067396674L-476.902252287 -276.267891846L-473.768056392 -283.048497964L-471.927801573 -289.824732823L-469.462772581 -296.399497362L-473.63808065 -302.194623254L-473.385435919 -309.332749914L-470.992019665 -316.077927348L-473.315226176 -322.847607657L-469.159901772 -328.49003245L-468.226046876 -335.434929388L-466.477069188 -342.175668962L-467.83251643 -349.006427025L-468.619692204 -342.861624953L-469.232433338 -336.696984939L-469.270127678 -330.399469569L-471.539300702 -324.52486537L-469.175868919 -318.623388776L-469.451228748 -312.272214651L-469.494680958 -305.649307059L-465.230740834 -300.581407327L-466.848690529 -294.42110035L-465.396556407 -288.219612646L-464.671633164 -282.020530147L-462.277656517 -276.256589365L-457.32019267 -272.060157806L-455.620890942 -265.791277581L-452.61976616 -260.162976606L-452.506823585 -253.785534658L-448.590863545 -248.313985908L-442.40244285 -245.67276686L-436.775329639 -241.776492435L-434.694933516 -235.255962589L-430.649188281 -230.08736824L-426.360593181 -225.118427295L-426.522251677 -218.24464111L-422.736390033 -212.505100921L-421.184044907 -205.52226576L-416.037969794 -200.553596602L-414.115707783 -193.510946069L-417.221248935 -186.904159263L-417.863146941 -180.340520036L-419.806708769 -174.038460026L-423.287581644 -168.296267035L-424.069044195 -161.627041247L-428.887255151 -156.278326662L-434.045287782 -151.256513851L-433.326629484 -143.830959692L-436.493579921 -137.076276188L-437.682349818 -130.098447357L-437.141816316 -123.040749956L-435.698813185 -116.074162685L-432.15564799 -109.90475618L-436.107369158 -104.582431036L-441.225344756 -100.369407072L-445.873539454 -95.7110641291L-450.663205747 -91.1983077948L-456.689257495 -87.7139504068L-460.611723363 -81.9634454213L-460.944089225 -74.9120245456L-464.955139375 -69.103024621L-465.072247513 -62.0229138732L-462.619857147 -55.3800632798L-466.83973372 -49.3915250869L-466.686726973 -42.06714546L-471.932610662 -36.8701051203L-472.475682082 -29.5057587537L-475.351295643 -22.6593122799L-472.818255363 -15.6788617489L-468.420393858 -10.3894993088L-466.007500221 -3.94772275733L-462.565501903 2.02266925624L-457.257152241 6.41747950113L-455.108038321 13.1308446653L-449.705425696 17.6585084437L-446.615339789 23.6840617883L-443.691410505 29.7919715425L-443.834112479 27.6258854399L-444.622542121 25.6033445736L-445.953081595 23.7975458469L-446.0491224 21.5565593461L-446.983100742 19.5267545249L-446.689395405 17.3117691233L-446.889202368 15.1341090161L-447.892328034 13.190950437L-447.54431353 10.9365319366L-447.355692539 8.66322179673L-448.319103587 6.42725471482L-447.57495036 4.10907749707L-445.818960067 2.31007059794L-445.593591355 -0.193753811675L-443.169512041 -0.794859146968L-441.594740826 -2.7333079502L-441.751576788 -5.1941918928L-440.347046752 -7.22097325163L-440.726728996 -9.55444992462L-441.874587681 -11.6212572274L-441.279520581 -13.9047599671L-439.438387611 -15.380808409L-437.432020582 -16.5135110874L-436.161599633 -18.4356335139L-435.92862693 -20.6173392212L-435.42668271 -22.753262458L-435.289712269 -25.0248976546L-433.983265008 -26.8883039232L-433.401121503 -29.2199353346L-434.254295445 -31.466597375L-435.111107727 -33.726545982L-437.151631256 -35.0218292415L-436.066282761 -36.9725956002L-434.851799059 -38.8456946579L-434.261655739 -41.0107210837L-433.223767866 -43.0002932298L-431.126756235 -44.2246334879L-429.933945352 -46.3397384612L-427.520250123 -46.0469733464L-425.297751369 -47.0329425968L-424.522781181 -49.3719034696L-422.41135462 -50.6420194625L-420.152486655 -51.1432050003L-417.853768022 -51.4069550266L-416.343748636 -52.9997806889L-414.732249004 -54.4898548719L-413.142907066 -56.1717566343L-412.890969446 -58.4720454787L-411.787687693 -60.5370227362L-412.242940004 -62.8335651446L-410.712191286 -64.4296673016L-409.449633098 -66.2453436368L-408.595453403 -68.2653602801L-408.543146068 -70.4579282112L-407.465522226 -72.3239843987L-406.320615683 -74.1495330409L-407.826904864 -76.02385871L-407.945837444 -78.425495413L-408.36933663 -80.7099492081L-407.976077791 -82.9998025194L-407.655011284 -85.3917960569L-405.808786488 -86.9461997334L-404.873082686 -88.9962164888L-403.756626889 -90.9536731947L-397.015159322 -91.0875840666L-390.409053459 -92.4383921199L-383.620259345 -93.8219196157L-376.994491283 -91.7968093889L-370.108965629 -91.7478139483L-363.235893609 -92.1646413613L-356.987905447 -89.2793105236L-350.793396387 -86.2808863355L-343.842106007 -85.5492613123L-337.846546474 -81.9563545468L-332.833046291 -77.1444674512L-326.396322465 -74.5256837838L-320.822682615 -69.3981094471L-313.365931136 -68.0735955266L-311.047140319 -61.1767629572L-308.174302228 -54.4917130963L-306.055039952 -48.0460317659L-305.089013164 -41.3300156367L-299.578942435 -37.2714270775L-295.592428915 -31.7089878212L-289.895297312 -27.9775705903L-285.639189489 -22.6609617795L-281.415140784 -16.9781719087L-281.393337828 -9.89747894781L-279.283967767 -3.30117966192L-275.372610809 2.41387878645L-271.347798333 8.20347366812L-265.11734486 11.5049845176L-259.515641334 15.5179817881L-253.976959999 19.6175230504L-247.375812407 21.7977822101L-240.433782143 22.167775948L-239.544101582 29.4445099406L-242.97202649 35.924611786L-242.064651312 42.8609559472L-240.932582714 49.7641885758L-235.875328983 55.3471574642L-235.685237064 62.8777100318L-232.12551614 69.3802882778L-225.456960119 72.6184200711L-219.734331322 76.9985748797L-212.546927371 77.5234186006L-206.655383583 81.7414625545L-204.281614953 88.5874398762L-202.30547674 95.1905802403L-198.477159637 100.922122185L-193.660055705 105.827832694L-187.733919809 109.313718409L-182.636160048 115.376982806L-182.453614469 123.29638978L-180.99130228 130.963204121L-184.00757162 138.161851102L-187.837601453 144.43631717L-193.19247332 149.472526087L-194.774067819 157.084692164L-200.952125162 161.804662608L-194.878176039 165.975823665L-190.712234237 172.053353709L-183.838431296 175.255536902L-179.976744528 181.781678135L-179.70717508 189.033679487L-179.707524286 196.290689282L-175.832563251 203.061642595L-177.631031812 210.652864013L-180.358123591 208.53676233L-183.803320815 208.750144593L-186.87372201 209.809469837L-189.649358458 211.496294007L-192.583175366 210.729191221L-195.593005129 210.359524987L-198.618901455 210.227625364L-201.64437624 210.368864214L-204.734675973 210.300945345L-207.825490993 210.263157502L-210.749350006 209.229731918L-213.801342219 208.679946962L-216.729400603 210.041902322L-219.92615288 209.584493111L-222.350567264 211.767511497L-225.599554575 212.063207005L-228.739810938 212.892946167L-231.950331853 213.385117439L-235.155858612 213.991415061L-238.157642158 215.269027736L-241.503032849 215.34158236L-244.554121011 213.96762309L-247.864645937 212.856056485L-251.076496236 214.226885889L-253.645603234 212.177454149L-256.796092225 211.242093076L-258.410648036 208.246765103L-261.505692815 206.832736128L-264.712676556 205.973103819L-267.110552773 203.676606036L-270.223625316 202.321910284L-271.875847769 199.356007014L-274.938364664 198.530965573L-278.029093095 197.818855413L-281.213587679 197.411447687L-284.368701276 198.004950004L-287.543728528 199.639966139L-291.00723176 198.76920717L-293.203261068 196.025206168L-296.595064481 195.104469596L-299.708539427 196.698131903L-302.684890145 198.535200815L-306.239611818 198.985809476L-309.642139815 197.862467333L-313.050764021 197.342308962L-315.829040105 195.300137149L-318.383425209 193.087822822L-321.436829683 191.640086984L-322.993255201 194.838351242L-326.301468505 196.144903726L-329.129589518 197.919157743L-331.460373071 200.309491152L-334.552324992 201.935547844L-337.013053599 204.415273993L-337.070893795 208.087065083L-339.466049913 210.870699841L-343.190919309 211.240383306L-346.325092863 213.28691061L-349.411626896 215.352829212L-351.416666196 218.479253594L-355.059179679 219.163910493L-358.486906456 217.754176941L-361.971268653 217.024557135L-365.344666436 215.887318206L-367.497455987 215.118464771L-369.140452102 213.52906167L-370.956846922 212.219664462L-372.586680972 210.684264789L-373.582755094 208.537109875L-374.756630394 206.481762054L-376.667672899 204.952112289L-379.087039004 204.579849594L-380.412740154 202.586469081L-381.848765139 200.671036583L-382.44933235 198.225768735L-384.379529127 196.608871638L-386.85074277 197.161228453L-389.373247355 196.939946876L-392.023342351 196.513171599L-393.691505691 194.41022802L-395.536117279 192.697574772L-396.472760733 190.361237447L-398.214891073 188.592344191L-400.393978306 187.402562571L-402.555552842 186.204999056L-404.999459756 185.839100375L-406.987317202 184.395269713L-409.301670059 183.57065158L-409.658809292 181.097743833L-408.945213044 178.703249825L-408.438424655 176.151456706L-409.713383331 173.883646537L-411.613665903 172.100126219L-411.782373285 169.499442387L-412.68444869 167.244265553L-413.866678827 165.122498721L-412.558795255 162.88642467L-412.062380327 160.343953664L-411.959640475 157.724783003L-413.016169027 155.32595874L-413.672415771 152.80133923L-414.541212917 150.34175492L-416.771654718 148.987123198L-418.851714884 147.411290898L-418.330558988 145.106933813L-417.657132366 142.84238935L-416.234235109 140.95782181L-414.855702462 139.040563572L-414.478702599 136.694236778L-414.767053241 134.335374292L-413.836449574 132.1714512L-413.110224194 129.93065156L-413.149501247 127.467441358L-414.523918352 125.422954917L-415.746304722 123.390388409L-416.582215979 121.170747128L-416.894014401 118.684463613L-415.645874389 116.511684176L-414.388953725 114.482804246L-413.533864173 112.254570599L-413.478493878 109.789706516L-414.221650015 107.438889685L-416.437888322 106.253459483L-417.794681612 104.137787257L-418.015690606 101.805456524L-418.492221524 99.5116540235L-417.070120913 97.4638685624L-417.317748055 94.9830468759L-417.767223284 95.8396999193L-417.922143721 96.7946250872L-417.658938212 97.787485909L-418.147471428 98.6910261949L-417.301037261 99.2909032575L-416.814989134 100.207451406L-416.882609931 101.219396491L-416.751915844 102.225142226L-415.921762019 102.759076832L-414.960332592 102.982448702L-414.262196509 103.724666009L-413.265607358 103.937011446L-412.735704401 104.761955569L-412.292972883 105.636780553L-411.777471754 106.51271637L-411.788356472 107.529026605L-411.311241608 108.278620776L-410.924989835 109.078832987L-411.057030184 109.981927129L-410.761080066 110.845308394L-410.507457033 111.701840902L-410.675743374 112.579139191L-410.788036755 113.456303577L-410.562441643 114.311367323L-410.6028685 115.207449498L-410.36848858 116.073280688L-410.650092067 116.913685341L-410.949756917 117.747820511L-410.480326073 118.540437468L-410.299521252 119.443718473L-410.516663021 120.325616809L-410.759483342 121.200793086L-410.231165342 122.003722639L-409.472202857 122.593461328L-408.464177327 122.706677108L-407.785610554 123.460653512L-407.23275184 124.271892541L-406.882346412 125.188940825L-405.97604137 125.564903249L-405.175863361 126.132751581L-404.29777269 126.686382126L-403.815317332 127.605504987L-403.158914412 128.363608374L-402.539129541 129.151930805L-403.043065313 130.098344903L-403.34817618 131.126235104L-402.817832682 132.076293196L-402.694794327 133.157374214L-401.748601706 133.177068849L-400.893856682 133.583368366L-399.97744352 133.71210377L-399.06507283 133.86691208L-398.033020291 133.775508341L-397.116144292 134.258028278L-396.723815166 135.199554114L-395.958683661 135.8740664L-395.052053046 135.478083389L-394.075965566 135.63943656L-393.291650272 136.192559725L-392.377602856 136.485156783L-391.461505526 136.325103352L-390.53170496 136.343056797L-389.551444331 136.319763258L-388.769911502 136.911928713" />
    <path
       id="path3275"
       d="M 193.52657,268.85494 L 196.21468,268.3195 L 198.85198,267.71783 L 201.69355,267.96748 L 204.57393,267.98941 L 207.40716,267.76168 L 210.17135,268.16093 L 213.07609,268.11678 L 215.62066,268.85718 L 217.60818,269.97429 L 220.26216,270.59636 L 223.17753,270.55063 L 225.8528,271.16357 L 228.65319,270.66657 L 231.57332,270.90391 L 234.25862,271.44468 L 236.83056,272.12166 L 239.29588,271.28646 L 241.82144,270.50296 L 243.90868,269.31191 L 244.30342,267.70325 L 247.09102,267.17023 L 248.7518,265.87439 L 251.43723,265.13153 L 252.43375,263.62071 L 255.22434,263.12308 L 257.77501,262.34573 L 260.70964,262.36233 L 263.62717,262.53003 L 266.0192,261.69988 L 268.25858,260.75864 L 271.10496,260.41658 L 273.46908,259.51306 L 276.04712,259.20928 L 278.67872,259.0884 L 281.15376,259.61513 L 283.81642,259.71086 L 286.3649,260.14722 L 288.98848,259.86028 L 291.57093,259.47108 L 294.168,259.83222 L 296.48345,260.61287 L 298.20355,261.74339 L 300.9083,261.90419 L 303.51903,262.31034 L 306.13221,262.4557 L 308.6521,262.84865 L 311.11867,263.46936 L 313.82479,263.26833 L 314.59115,264.80821 L 316.49863,266.04191 L 319.07256,266.86811 L 322.05839,267.08082 L 323.95246,268.18416 L 326.42091,268.90524 L 329.27457,269.02076 L 331.72002,269.80523 L 334.45898,269.16804 L 337.30899,269.65104 L 339.90969,269.10352 L 342.42858,268.45827 L 345.48472,268.41841 L 347.81558,269.46197 L 350.48053,268.81708 L 353.4116,268.85494 L 355.28034,269.82676 L 356.03733,271.15224 L 355.81457,272.53663 L 356.94306,273.79198 L 359.16015,274.45565 L 360.96755,275.404 L 361.74233,276.75822 L 363.96322,277.55081 L 363.12037,278.88976 L 363.66231,280.27134 L 365.86107,281.13189 L 366.55513,282.52905 L 367.78192,283.75554 L 367.19975,285.10788 L 367.41773,286.46173 L 369.02098,287.52509 L 366.49292,288.31114 L 364.91092,289.61502 L 364.15483,291.08773 L 364.32723,292.61079 L 361.61539,292.99142 L 359.73825,294.09185 L 357.81457,295.08739 L 355.67752,295.95338 L 355.93972,297.50097 L 354.48713,298.85259 L 352.63219,300.04231 L 352.2208,301.56742 L 352.41957,303.13644 L 354.49724,304.26399 L 355.1223,305.74634 L 356.96311,306.91381 L 355.32924,307.91299 L 354.17254,309.08302 L 354.72621,310.42905 L 353.68427,311.69196 L 351.76986,312.49474 L 350.36118,313.54935 L 348.30903,314.38214 L 347.82055,315.72349 L 347.64283,317.03404 L 348.37142,318.29044 L 349.41034,319.52701 L 348.93789,320.85644 L 349.09324,322.24229 L 347.42678,323.3167 L 346.185,324.44236 L 345.48444,325.69123 L 345.64185,327.02915 L 346.87301,328.20178 L 347.3392,329.48617 L 347.86922,330.76366 L 345.62155,331.63092 L 344.73022,333.02273 L 344.17793,334.4614 L 345.283,335.80854 L 346.76921,336.9064 L 347.46325,338.20485 L 349.18693,339.19105 L 351.35007,339.89618 L 351.83986,341.17231 L 352.62311,342.40704 L 353.576,343.64207 L 353.4116,344.97267 L 350.54841,345.19741 L 347.67676,345.38983 L 345.28496,344.43492 L 342.30604,344.24988 L 339.35177,343.8842 L 336.40961,344.27613 L 334.63769,342.92192 L 331.65947,342.43295 L 329.92211,341.10893 L 326.93443,340.77916 L 325.4112,339.51604 L 323.69005,338.32575 L 322.52656,336.94173 L 320.49844,335.87052 L 318.86475,334.54313 L 316.0004,334.07271 L 313.28916,333.96062 L 310.5994,334.17243 L 308.31306,335.09828 L 305.43534,335.01307 L 302.70104,335.2819 L 300.35267,336.06817 L 297.61014,336.4021 L 294.89152,336.01756 L 291.93647,335.6717 L 289.76752,334.55784 L 286.8656,334.36764 L 284.07988,333.89847 L 281.0364,333.90561 L 278.03684,334.17754 L 275.16577,334.87599 L 273.46908,336.28342 L 270.97426,336.85112 L 268.36226,337.24573 L 266.66031,338.37655 L 264.44253,339.2227 L 261.73548,339.2416 L 259.25886,339.81847 L 256.45382,339.70266 L 254.13443,340.54295 L 251.34418,340.77439 L 248.76305,341.37952 L 246.63158,340.29445 L 243.68547,340.13281 L 241.07739,339.88262 L 238.44785,340.05959 L 235.83806,339.92643 L 233.21635,339.90729 L 230.257,339.67357 L 227.26481,339.65804 L 224.99804,338.63323 L 222.76561,337.58766 L 219.94304,337.85152 L 217.39346,338.54277 L 215.01369,339.49662 L 212.02504,339.5037 L 209.41943,339.87094 L 206.98346,340.4816 L 205.30771,341.64393 L 202.7935,342.25485 L 200.38026,342.84533 L 197.9433,343.40808 L 195.53661,344.03456 L 193.52657,344.97267 L 191.81721,343.98059 L 191.24652,342.67414 L 190.65904,341.37939 L 189.05398,340.35205 L 188.1617,339.06122 L 188.78644,337.72736 L 188.02932,336.47196 L 186.95015,335.28392 L 187.80815,333.83816 L 186.69578,332.44149 L 187.83049,331.07889 L 190.21868,330.28668 L 190.51922,328.89958 L 189.19138,327.69192 L 188.9004,326.37296 L 188.91654,325.04513 L 191.67272,324.8437 L 194.39736,324.54592 L 195.74182,323.19526 L 198.23407,322.42156 L 198.2201,320.92384 L 198.21507,319.4261 L 200.64772,318.57431 L 202.08178,317.23258 L 202.4686,315.90217 L 203.45589,314.66107 L 204.81833,313.52188 L 205.58694,312.23738 L 204.473,310.97693 L 204.12808,309.59816 L 204.19798,308.19855 L 205.25284,306.91381 L 206.63363,305.65025 L 207.27664,304.23174 L 205.66553,303.00202 L 205.44391,301.51172 L 204.24735,300.15147 L 204.73194,298.67384 L 202.20698,297.99463 L 200.81764,296.69135 L 198.27875,296.25753 L 195.77947,295.76381 L 194.03485,294.68043 L 192.92783,293.38437 L 191.86587,292.12578 L 189.79667,291.28538 L 188.75047,290.06783 L 187.50549,288.90349 L 187.41767,287.57527 L 188.15487,286.30443 L 189.00265,285.03766 L 190.79573,284.08376 L 192.3734,283.01488 L 193.16448,281.72606 L 193.84812,280.3582 L 192.75538,279.06639 L 193.30719,277.76615 L 193.68267,276.44853 L 192.87475,275.18688 L 192.00468,273.93678 L 191.06278,272.6497 L 191.56876,271.2961 L 191.70866,269.88824 L 193.52657,268.85494"
       style="fill:url(#radialGradient4250);fill-opacity:1.0;fill-rule:evenodd;stroke:none;stroke-width:1.71851885;stroke-miterlimit:4;stroke-opacity:1" />
  </g>
</svg>
